#N canvas 1920 139 1920 2021 16;
#X obj 537 330 mtof;
#X floatatom 537 302 5 0 0 0 - - -;
#X obj 544 395 osc~ 200;
#X obj 541 454 *~ 0.1;
#X obj 746 502 line~;
#X obj 746 417 t l b;
#X obj 545 425 *~;
#X obj 740 263 bng 15 250 50 0 empty empty empty 17 7 0 10 -262144
-1 -1;
#X msg 746 389 0 \, 1 \$1;
#X msg 863 446 1 \, 0 \$1;
#X obj 745 356 unpack;
#X msg 863 389 set \$1;
#X floatatom 863 417 5 0 0 0 - - -;
#X text 481 272 synth;
#X text 782 300 envelope;
#X obj 790 450 del 50;
#X obj 372 334 mtof;
#X floatatom 372 306 5 0 0 0 - - -;
#X obj 379 399 osc~ 200;
#X obj 376 458 *~ 0.1;
#X obj 380 429 *~;
#X text 316 276 synth;
#X obj 204 331 mtof;
#X floatatom 204 303 5 0 0 0 - - -;
#X obj 211 396 osc~ 200;
#X obj 208 455 *~ 0.1;
#X obj 212 426 *~;
#X text 148 273 synth;
#X obj 64 377 mtof;
#X floatatom 55 311 5 0 0 0 - - -;
#X obj 62 404 osc~ 200;
#X obj 59 463 *~ 0.1;
#X obj 63 434 *~;
#X text -1 281 synth;
#X floatatom 152 402 5 0 0 0 - hs_vol -;
#X obj 58 555 dac~ 1 2;
#X floatatom 596 361 5 0 0 0 - - -;
#X obj 375 550 dac~ 4 6;
#X text 17 24 1/1 \, 8/7 \, 7/6 \, 6/5 \, 5/4 \, 4/3 \, 7/5 \, 10/7
\, 3/2 \, 8/5 \, 5/3 \,;
#X floatatom 479 402 5 0 0 0 - hs_vol -;
#X obj 751 564 s~ hs_env;
#X obj 631 394 r~ hs_env;
#X obj 417 369 r~ hs_env;
#X obj 242 368 r~ hs_env;
#X obj 113 351 r~ hs_env;
#X obj 1460 341 mtof;
#X floatatom 1460 313 5 0 0 0 - - -;
#X obj 1467 406 osc~ 200;
#X obj 1464 465 *~ 0.1;
#X obj 1669 513 line~;
#X obj 1669 428 t l b;
#X obj 1468 436 *~;
#X obj 1667 318 bng 15 250 50 0 empty empty empty 17 7 0 10 -262144
-1 -1;
#X msg 1669 400 0 \, 1 \$1;
#X msg 1786 457 1 \, 0 \$1;
#X obj 1668 367 unpack;
#X msg 1786 400 set \$1;
#X floatatom 1786 428 5 0 0 0 - - -;
#X text 1404 283 synth;
#X text 1705 311 envelope;
#X obj 1713 461 del 50;
#X obj 1463 557 dac~ 1 2;
#X obj 1295 345 mtof;
#X floatatom 1295 317 5 0 0 0 - - -;
#X obj 1302 410 osc~ 200;
#X obj 1299 469 *~ 0.1;
#X obj 1303 440 *~;
#X text 1239 287 synth;
#X obj 1127 342 mtof;
#X floatatom 1127 314 5 0 0 0 - - -;
#X obj 1134 407 osc~ 200;
#X obj 1131 466 *~ 0.1;
#X obj 1135 437 *~;
#X text 1071 284 synth;
#X obj 987 388 mtof;
#X floatatom 978 322 5 0 0 0 - - -;
#X obj 985 415 osc~ 200;
#X obj 982 474 *~ 0.1;
#X obj 986 445 *~;
#X text 922 292 synth;
#X floatatom 1075 413 5 0 0 0 - hs_vol -;
#X floatatom 1519 372 5 0 0 0 - - -;
#X floatatom 1402 413 5 0 0 0 - hs_vol -;
#X obj 1674 575 s~ hs_env2;
#X obj 1554 405 r~ hs_env2;
#X obj 1340 380 r~ hs_env2;
#X obj 1165 379 r~ hs_env2;
#X obj 1036 362 r~ hs_env2;
#X text 39 243 1/1 \, 4/3 \, 3/2 \, 8/5;
#X obj 207 547 dac~ 3 5;
#X floatatom 639 430 5 0 0 0 - hs_vol -;
#X obj 540 546 dac~ 7 8;
#X obj 981 566 dac~ 1 3;
#X obj 1130 558 dac~ 2 4;
#X obj 1298 561 dac~ 3 5;
#X text 934 259 7/6 \, 7/4 \, 8/7 \, 12/7;
#X obj 549 695 mtof;
#X floatatom 549 667 5 0 0 0 - - -;
#X obj 556 760 osc~ 200;
#X obj 553 819 *~ 0.1;
#X obj 761 855 line~;
#X obj 758 782 t l b;
#X obj 557 790 *~;
#X obj 756 672 bng 15 250 50 0 empty empty empty 17 7 0 10 -262144
-1 -1;
#X msg 758 754 0 \, 1 \$1;
#X msg 875 811 1 \, 0 \$1;
#X obj 757 721 unpack;
#X msg 875 754 set \$1;
#X floatatom 875 782 5 0 0 0 - - -;
#X text 493 637 synth;
#X text 794 665 envelope;
#X obj 802 815 del 50;
#X obj 384 699 mtof;
#X floatatom 384 671 5 0 0 0 - - -;
#X obj 391 764 osc~ 200;
#X obj 388 823 *~ 0.1;
#X obj 392 794 *~;
#X text 328 641 synth;
#X obj 216 696 mtof;
#X floatatom 216 668 5 0 0 0 - - -;
#X obj 223 761 osc~ 200;
#X obj 220 820 *~ 0.1;
#X text 160 638 synth;
#X obj 76 742 mtof;
#X floatatom 67 676 5 0 0 0 - - -;
#X obj 74 769 osc~ 200;
#X obj 71 828 *~ 0.1;
#X text 33 645 synth;
#X floatatom 164 767 5 0 0 0 - hs_vol -;
#X floatatom 608 726 5 0 0 0 - - -;
#X floatatom 491 767 5 0 0 0 - hs_vol -;
#X text 23 613 3/2 \, 9/8 \, 6/5 \, 9/5;
#X msg 51 83 60 62.31 62.67 63.16 63.86 64.98 65.83 66.17 67.02 68.14
68.84 69.33 69.69 72;
#X obj 55 206 unpack 0 0 0 0 0 0 0 0 0 0 0 0 0 0;
#X obj 412 203 unpack 0 0 0 0 0 0 0 0 0 0;
#X text 552 24 12/7 \, 7/4 \, 2/1 \, 12/7 \, 9/8 \, 9/5;
#X obj 90 47 bng 15 250 50 0 empty empty empty 17 7 0 10 -262144 -1
-1;
#X obj 763 929 s~ hs_env3;
#X obj 643 759 r~ hs_env3;
#X obj 429 734 r~ hs_env3;
#X obj 254 733 r~ hs_env3;
#X obj 125 716 r~ hs_env3;
#X obj 387 915 dac~ 7 8;
#X obj 552 911 dac~ 8 6;
#X msg 744 326 50 \$1;
#X msg 1667 337 50 5000;
#X floatatom 480 849 5 0 0 0 - - -;
#X obj 224 791 *~;
#X obj 75 799 *~;
#X text 759 678 comment;
#X msg 756 691 50 5000;
#X obj 70 920 dac~ 2 2;
#X obj 219 912 dac~ 4 4;
#X text 1010 620 5/3 15/8 3/2 4/3;
#X obj 1496 709 mtof;
#X floatatom 1496 681 5 0 0 0 - - -;
#X obj 1503 774 osc~ 200;
#X obj 1500 833 *~ 0.1;
#X obj 1708 869 line~;
#X obj 1705 796 t l b;
#X obj 1504 804 *~;
#X obj 1703 686 bng 15 250 50 0 empty empty empty 17 7 0 10 -262144
-1 -1;
#X msg 1705 768 0 \, 1 \$1;
#X msg 1822 825 1 \, 0 \$1;
#X obj 1704 735 unpack;
#X msg 1822 768 set \$1;
#X floatatom 1822 796 5 0 0 0 - - -;
#X text 1440 651 synth;
#X text 1741 679 envelope;
#X obj 1749 829 del 50;
#X obj 1331 713 mtof;
#X floatatom 1331 685 5 0 0 0 - - -;
#X obj 1338 778 osc~ 200;
#X obj 1335 837 *~ 0.1;
#X obj 1339 808 *~;
#X text 1275 655 synth;
#X obj 1163 710 mtof;
#X floatatom 1163 682 5 0 0 0 - - -;
#X obj 1170 775 osc~ 200;
#X obj 1167 834 *~ 0.1;
#X text 1107 652 synth;
#X obj 1023 756 mtof;
#X floatatom 1014 690 5 0 0 0 - - -;
#X obj 1021 783 osc~ 200;
#X obj 1018 842 *~ 0.1;
#X text 980 659 synth;
#X floatatom 1111 781 5 0 0 0 - hs_vol -;
#X floatatom 1555 740 5 0 0 0 - - -;
#X floatatom 1438 781 5 0 0 0 - hs_vol -;
#X floatatom 1427 863 5 0 0 0 - - -;
#X obj 1171 805 *~;
#X obj 1022 813 *~;
#X text 1706 692 comment;
#X msg 1703 705 50 5000;
#X obj 1710 943 s~ hs_env4;
#X obj 1590 773 r~ hs_env4;
#X obj 1376 748 r~ hs_env4;
#X obj 1201 747 r~ hs_env4;
#X obj 1072 730 r~ hs_env4;
#X obj 1017 934 dac~ 3 5;
#X obj 1166 926 dac~ 4 6;
#X obj 1334 929 dac~ 1 1;
#X obj 1499 925 dac~ 2 2;
#X msg 740 283 5000;
#X obj 945 125 synth hs_env5 1 3;
#X text 947 60 4/3 \, 1/1 \, 96/49 \, 64/49;
#X obj 1120 126 synth hs_env5 1 2;
#X obj 1290 125 synth hs_env5 7 8;
#X obj 1461 125 synth hs_env5 5 7;
#X obj 1722 181 line~;
#X obj 1691 118 t l b;
#X obj 1689 8 bng 15 250 50 0 empty empty empty 17 7 0 10 -262144 -1
-1;
#X msg 1691 90 0 \, 1 \$1;
#X msg 1808 147 1 \, 0 \$1;
#X obj 1690 57 unpack;
#X msg 1808 90 set \$1;
#X floatatom 1808 118 5 0 0 0 - - -;
#X obj 1735 151 del 50;
#X msg 429 137 69.33 60.3 70.17 70.88 71.64 64.62;
#X msg 1689 27 50 20000;
#X obj 1115 204 synth hs_env6 1 1;
#X obj 940 203 synth hs_env6 1 1;
#X obj 1722 209 s~ hs_env5;
#X connect 0 0 2 0;
#X connect 0 0 36 0;
#X connect 1 0 0 0;
#X connect 2 0 6 0;
#X connect 3 0 91 0;
#X connect 3 0 91 1;
#X connect 4 0 40 0;
#X connect 5 0 4 0;
#X connect 5 1 15 0;
#X connect 6 0 3 0;
#X connect 7 0 203 0;
#X connect 8 0 5 0;
#X connect 9 0 4 0;
#X connect 10 0 8 0;
#X connect 10 0 15 1;
#X connect 10 1 11 0;
#X connect 11 0 12 0;
#X connect 12 0 9 0;
#X connect 15 0 12 0;
#X connect 16 0 18 0;
#X connect 17 0 16 0;
#X connect 18 0 20 0;
#X connect 19 0 37 0;
#X connect 19 0 37 1;
#X connect 20 0 19 0;
#X connect 22 0 24 0;
#X connect 23 0 22 0;
#X connect 24 0 26 0;
#X connect 25 0 89 0;
#X connect 25 0 89 1;
#X connect 26 0 25 0;
#X connect 28 0 30 0;
#X connect 29 0 28 0;
#X connect 30 0 32 0;
#X connect 31 0 35 0;
#X connect 31 0 35 1;
#X connect 32 0 31 0;
#X connect 34 0 31 1;
#X connect 34 0 25 1;
#X connect 39 0 19 1;
#X connect 41 0 6 1;
#X connect 42 0 20 1;
#X connect 43 0 26 1;
#X connect 44 0 32 1;
#X connect 45 0 47 0;
#X connect 45 0 81 0;
#X connect 46 0 45 0;
#X connect 47 0 51 0;
#X connect 48 0 61 0;
#X connect 48 0 61 1;
#X connect 49 0 83 0;
#X connect 50 0 49 0;
#X connect 50 1 60 0;
#X connect 51 0 48 0;
#X connect 52 0 145 0;
#X connect 53 0 50 0;
#X connect 54 0 49 0;
#X connect 55 0 53 0;
#X connect 55 0 60 1;
#X connect 55 1 56 0;
#X connect 56 0 57 0;
#X connect 57 0 54 0;
#X connect 60 0 57 0;
#X connect 62 0 64 0;
#X connect 63 0 62 0;
#X connect 64 0 66 0;
#X connect 65 0 94 0;
#X connect 65 0 94 1;
#X connect 66 0 65 0;
#X connect 68 0 70 0;
#X connect 69 0 68 0;
#X connect 70 0 72 0;
#X connect 71 0 93 0;
#X connect 71 0 93 1;
#X connect 72 0 71 0;
#X connect 74 0 76 0;
#X connect 75 0 74 0;
#X connect 76 0 78 0;
#X connect 77 0 92 0;
#X connect 77 0 92 1;
#X connect 78 0 77 0;
#X connect 80 0 77 1;
#X connect 80 0 71 1;
#X connect 82 0 65 1;
#X connect 82 0 48 1;
#X connect 84 0 51 1;
#X connect 85 0 66 1;
#X connect 86 0 72 1;
#X connect 87 0 78 1;
#X connect 90 0 3 1;
#X connect 96 0 98 0;
#X connect 96 0 129 0;
#X connect 97 0 96 0;
#X connect 98 0 102 0;
#X connect 99 0 143 0;
#X connect 99 0 143 1;
#X connect 100 0 137 0;
#X connect 101 0 100 0;
#X connect 101 1 111 0;
#X connect 102 0 99 0;
#X connect 103 0 150 0;
#X connect 104 0 101 0;
#X connect 105 0 100 0;
#X connect 106 0 104 0;
#X connect 106 0 111 1;
#X connect 106 1 107 0;
#X connect 107 0 108 0;
#X connect 108 0 105 0;
#X connect 111 0 108 0;
#X connect 112 0 114 0;
#X connect 113 0 112 0;
#X connect 114 0 116 0;
#X connect 115 0 142 0;
#X connect 115 0 142 1;
#X connect 116 0 115 0;
#X connect 118 0 120 0;
#X connect 119 0 118 0;
#X connect 120 0 147 0;
#X connect 121 0 152 0;
#X connect 121 0 152 1;
#X connect 123 0 125 0;
#X connect 124 0 123 0;
#X connect 125 0 148 0;
#X connect 126 0 151 0;
#X connect 126 0 151 1;
#X connect 128 0 126 1;
#X connect 128 0 121 1;
#X connect 130 0 115 1;
#X connect 130 0 99 1;
#X connect 132 0 133 0;
#X connect 133 0 29 0;
#X connect 133 0 206 0;
#X connect 133 0 221 0;
#X connect 133 1 63 0;
#X connect 133 2 75 0;
#X connect 133 3 113 0;
#X connect 133 5 23 0;
#X connect 133 5 155 0;
#X connect 133 5 204 0;
#X connect 133 6 220 0;
#X connect 133 8 17 0;
#X connect 133 8 124 0;
#X connect 133 8 171 0;
#X connect 133 9 1 0;
#X connect 133 10 182 0;
#X connect 133 12 69 0;
#X connect 134 0 46 0;
#X connect 134 1 119 0;
#X connect 134 2 97 0;
#X connect 134 3 177 0;
#X connect 134 4 207 0;
#X connect 134 5 208 0;
#X connect 136 0 132 0;
#X connect 136 0 218 0;
#X connect 138 0 102 1;
#X connect 139 0 116 1;
#X connect 140 0 147 1;
#X connect 141 0 148 1;
#X connect 144 0 10 0;
#X connect 145 0 55 0;
#X connect 146 0 102 1;
#X connect 146 0 116 1;
#X connect 147 0 121 0;
#X connect 148 0 126 0;
#X connect 150 0 106 0;
#X connect 154 0 156 0;
#X connect 154 0 187 0;
#X connect 155 0 154 0;
#X connect 156 0 160 0;
#X connect 157 0 202 0;
#X connect 157 0 202 1;
#X connect 158 0 194 0;
#X connect 159 0 158 0;
#X connect 159 1 169 0;
#X connect 160 0 157 0;
#X connect 161 0 193 0;
#X connect 162 0 159 0;
#X connect 163 0 158 0;
#X connect 164 0 162 0;
#X connect 164 0 169 1;
#X connect 164 1 165 0;
#X connect 165 0 166 0;
#X connect 166 0 163 0;
#X connect 169 0 166 0;
#X connect 170 0 172 0;
#X connect 171 0 170 0;
#X connect 172 0 174 0;
#X connect 173 0 201 0;
#X connect 173 0 201 1;
#X connect 174 0 173 0;
#X connect 176 0 178 0;
#X connect 177 0 176 0;
#X connect 178 0 190 0;
#X connect 179 0 200 0;
#X connect 179 0 200 1;
#X connect 181 0 183 0;
#X connect 182 0 181 0;
#X connect 183 0 191 0;
#X connect 184 0 199 0;
#X connect 184 0 199 1;
#X connect 186 0 184 1;
#X connect 186 0 179 1;
#X connect 188 0 173 1;
#X connect 188 0 157 1;
#X connect 189 0 160 1;
#X connect 189 0 174 1;
#X connect 190 0 179 0;
#X connect 191 0 184 0;
#X connect 193 0 164 0;
#X connect 195 0 160 1;
#X connect 196 0 174 1;
#X connect 197 0 190 1;
#X connect 198 0 191 1;
#X connect 203 0 144 0;
#X connect 209 0 222 0;
#X connect 210 0 209 0;
#X connect 210 1 217 0;
#X connect 211 0 219 0;
#X connect 212 0 210 0;
#X connect 213 0 209 0;
#X connect 214 0 212 0;
#X connect 214 0 217 1;
#X connect 214 1 215 0;
#X connect 215 0 216 0;
#X connect 216 0 213 0;
#X connect 217 0 216 0;
#X connect 218 0 134 0;
#X connect 219 0 214 0;
