#N canvas 0 139 3840 2021 16;
#X floatatom 124 551 5 0 0 0 - - -;
#X floatatom 376 555 5 0 0 0 - - -;
#X text 123 569 pitch;
#X text 333 495 envelope;
#X obj 465 118 readsf~;
#X obj 459 599 *~;
#X floatatom 496 600 5 0 0 0 - - -;
#X obj 125 598 t f f;
#X obj 514 185 sigmund~ -npeak 10 peaks;
#X obj 514 213 route 0 1 2 3 4 5 6 7 8 9;
#X obj 513 255 unpack 0 0 0 0;
#X floatatom 513 377 5 0 0 0 - - -;
#X floatatom 553 347 8 0 0 0 - - -;
#X floatatom 593 322 5 0 0 0 - - -;
#X floatatom 634 296 5 0 0 0 - - -;
#X obj 712 267 unpack 0 0 0 0;
#X floatatom 712 389 5 0 0 0 - - -;
#X floatatom 752 359 8 0 0 0 - - -;
#X floatatom 792 334 5 0 0 0 - - -;
#X floatatom 833 308 5 0 0 0 - - -;
#X text 775 393 frequency (Hz.);
#X text 843 360 peak amplitude (linear);
#X text 854 334 cosine component;
#X text 889 308 sine component;
#X text 567 375 loudest partial;
#X text 861 444 quietest partial;
#X obj 124 525 sigmund~ -hop 512 pitch env;
#X floatatom 536 514 0 0 0 0 - - -;
#X msg 452 502 clear;
#X obj 460 569 bp~ 100 10;
#X floatatom 536 541 0 0 0 0 - - -;
#X obj 375 584 > 32;
#X obj 316 774 mtof;
#X floatatom 316 746 5 0 0 0 - - -;
#X obj 314 801 osc~ 200;
#X obj 124 664 spigot;
#X obj 170 632 != -1500;
#X obj 311 860 *~ 0.1;
#X obj 584 477 hsl 128 15 0.001 16 0 0 empty empty empty -2 -8 0 10
-262144 -1 -1 3200 1;
#X obj 584 498 hsl 128 15 80 1000 0 0 empty empty empty -2 -8 0 10
-262144 -1 -1 5696 1;
#X obj 516 908 line~;
#X obj 516 823 t l b;
#X obj 315 831 *~;
#X obj 514 713 bng 15 250 50 0 empty empty empty 17 7 0 10 -262144
-1 -1;
#X msg 516 795 0 \, 1 \$1;
#X msg 633 852 1 \, 0 \$1;
#X obj 515 762 unpack;
#X msg 633 795 set \$1;
#X floatatom 633 823 5 0 0 0 - - -;
#X obj 893 591 t f f;
#X obj 892 509 spigot;
#X obj 893 619 sel 1;
#X obj 893 647 t b b;
#X msg 964 476 0;
#X msg 924 476 1;
#X obj 892 681 del 700;
#N canvas 1540 1201 2292 951 pitch 0;
#X obj 172 48 inlet;
#X obj 126 99 float;
#X obj 71 46 inlet;
#X obj 114 234 outlet;
#X text 230 43 pitch;
#X connect 0 0 1 1;
#X connect 1 0 3 0;
#X connect 2 0 1 0;
#X restore 316 716 pd pitch;
#X floatatom 825 645 5 0 0 0 - - -;
#X obj 967 681 print **ON**;
#X obj 515 465 unpack;
#X msg 515 434 286.346 2.01662;
#X text 502 501 comment;
#X text 577 528 comment;
#X obj 822 679 del 20;
#X text 469 625 monitor;
#X text 260 716 synth;
#X text 552 706 envelope;
#X obj 868 70 loadbang;
#X obj 868 99 s lb;
#X obj 515 404 r lb;
#X obj 421 -18 tgl 35 0 empty empty empty 17 7 0 10 -262144 -1 -1 0
1;
#X obj 465 55 sel 1;
#X obj 421 22 t f f;
#X floatatom 401 798 5 0 0 0 - - -;
#X obj 893 563 > 0.001;
#X obj 915 423 r lb;
#X obj 758 474 +;
#X floatatom 758 503 8 0 0 0 - - -;
#X obj 560 856 del 50;
#X msg 514 732 50 3050;
#X msg 465 86 open sax_spl.wav;
#N canvas 1920 139 1920 2021 harmonize 0;
#X floatatom 28 176 0 0 0 0 - - -;
#X obj 91 458 *~;
#X obj 214 395 line~;
#X floatatom 246 212 0 0 0 0 - - -;
#X text 77 109 PITCH SHIFTER;
#X obj 214 369 pack 0 200;
#X obj 246 186 r window;
#X obj 28 150 r transpose;
#X obj 28 243 exp;
#X floatatom 28 269 6 0 0 0 - - -;
#X obj 28 359 /;
#X obj 155 289 * 0.001;
#X obj 323 465 line~;
#X obj 323 440 pack 0 200;
#X floatatom 323 389 0 0 0 0 - - -;
#X obj 323 363 r delay;
#X obj 91 484 +~;
#X obj 28 510 cos~;
#X obj 28 537 *~;
#X obj 28 566 +~;
#X obj 115 417 wrap~;
#X obj 260 460 *~;
#X obj 260 493 +~;
#X obj 197 520 cos~;
#X obj 197 547 *~;
#X msg 501 156 \; transpose 0 \; window 100 \; delay 0;
#X obj 501 130 loadbang;
#X obj 155 316 t b f;
#X floatatom 28 385 6 0 0 0 - - -;
#X obj 115 390 +~ 0.5;
#X obj 28 458 -~ 0.5;
#X obj 28 484 *~ 0.5;
#X obj 197 459 -~ 0.5;
#X obj 197 492 *~ 0.5;
#X obj 28 296 - 1;
#X obj 28 217 * 0.05776;
#X obj 28 322 * -1;
#X text 62 174 <-- transposition;
#X text 109 193 (halftones);
#X text 91 263 speed;
#X text 90 277 change;
#X text 290 211 <--window (msec);
#X text 63 352 tape head;
#X obj 28 416 phasor~;
#X obj 323 416 max 1.5;
#X text 326 322 delay;
#X text 323 340 (msec);
#X obj 246 239 max 1;
#X text 64 365 rotation freq;
#X obj 91 510 vd~ G09-del;
#X obj 260 522 vd~ G09-del;
#X obj 247 143 delwrite~ G09-del 5000;
#X obj 245 99 inlet~;
#X obj 92 683 outlet~;
#X text 603 393 2/1 = 2;
#X text 605 484 1/1 = 1;
#X floatatom 319 242 5 0 0 0 - - -;
#X connect 0 0 35 0;
#X connect 1 0 16 0;
#X connect 2 0 1 1;
#X connect 2 0 21 1;
#X connect 3 0 47 0;
#X connect 5 0 2 0;
#X connect 6 0 3 0;
#X connect 7 0 0 0;
#X connect 8 0 9 0;
#X connect 9 0 34 0;
#X connect 10 0 28 0;
#X connect 11 0 27 0;
#X connect 12 0 16 1;
#X connect 12 0 22 1;
#X connect 13 0 12 0;
#X connect 14 0 44 0;
#X connect 15 0 14 0;
#X connect 16 0 49 0;
#X connect 17 0 18 0;
#X connect 18 0 19 0;
#X connect 19 0 53 0;
#X connect 20 0 21 0;
#X connect 20 0 32 0;
#X connect 21 0 22 0;
#X connect 22 0 50 0;
#X connect 23 0 24 0;
#X connect 24 0 19 1;
#X connect 26 0 25 0;
#X connect 27 0 10 0;
#X connect 27 1 10 1;
#X connect 28 0 43 0;
#X connect 29 0 20 0;
#X connect 30 0 31 0;
#X connect 31 0 17 0;
#X connect 32 0 33 0;
#X connect 33 0 23 0;
#X connect 34 0 36 0;
#X connect 35 0 8 0;
#X connect 36 0 10 0;
#X connect 43 0 1 0;
#X connect 43 0 30 0;
#X connect 43 0 29 0;
#X connect 44 0 13 0;
#X connect 47 0 11 0;
#X connect 47 0 5 0;
#X connect 49 0 18 1;
#X connect 50 0 24 1;
#X connect 52 0 51 0;
#X connect 56 0 9 0;
#X restore 287 278 pd harmonize;
#X obj 219 417 dac~ 1 2;
#N canvas 0 1199 1920 961 harmonize 0;
#X floatatom 28 176 0 0 0 0 - - -;
#X obj 91 458 *~;
#X obj 214 395 line~;
#X floatatom 246 212 0 0 0 0 - - -;
#X text 77 109 PITCH SHIFTER;
#X obj 214 369 pack 0 200;
#X obj 246 186 r window;
#X obj 28 150 r transpose;
#X obj 28 243 exp;
#X floatatom 28 269 6 0 0 0 - - -;
#X obj 28 359 /;
#X obj 155 289 * 0.001;
#X obj 323 465 line~;
#X obj 323 440 pack 0 200;
#X floatatom 323 389 0 0 0 0 - - -;
#X obj 323 363 r delay;
#X obj 91 484 +~;
#X obj 28 510 cos~;
#X obj 28 537 *~;
#X obj 28 566 +~;
#X obj 115 417 wrap~;
#X obj 260 460 *~;
#X obj 260 493 +~;
#X obj 197 520 cos~;
#X obj 197 547 *~;
#X msg 501 156 \; transpose 0 \; window 100 \; delay 0;
#X obj 501 130 loadbang;
#X obj 155 316 t b f;
#X floatatom 28 385 6 0 0 0 - - -;
#X obj 115 390 +~ 0.5;
#X obj 28 458 -~ 0.5;
#X obj 28 484 *~ 0.5;
#X obj 197 459 -~ 0.5;
#X obj 197 492 *~ 0.5;
#X obj 28 296 - 1;
#X obj 28 217 * 0.05776;
#X obj 28 322 * -1;
#X text 62 174 <-- transposition;
#X text 109 193 (halftones);
#X text 91 263 speed;
#X text 90 277 change;
#X text 290 211 <--window (msec);
#X text 63 352 tape head;
#X obj 28 416 phasor~;
#X obj 323 416 max 1.5;
#X text 326 322 delay;
#X text 323 340 (msec);
#X obj 246 239 max 1;
#X text 64 365 rotation freq;
#X obj 91 510 vd~ G09-del;
#X obj 260 522 vd~ G09-del;
#X obj 247 143 delwrite~ G09-del 5000;
#X obj 245 99 inlet~;
#X obj 92 683 outlet~;
#X connect 0 0 35 0;
#X connect 1 0 16 0;
#X connect 2 0 1 1;
#X connect 2 0 21 1;
#X connect 3 0 47 0;
#X connect 5 0 2 0;
#X connect 6 0 3 0;
#X connect 7 0 0 0;
#X connect 8 0 9 0;
#X connect 9 0 34 0;
#X connect 10 0 28 0;
#X connect 11 0 27 0;
#X connect 12 0 16 1;
#X connect 12 0 22 1;
#X connect 13 0 12 0;
#X connect 14 0 44 0;
#X connect 15 0 14 0;
#X connect 16 0 49 0;
#X connect 17 0 18 0;
#X connect 18 0 19 0;
#X connect 19 0 53 0;
#X connect 20 0 21 0;
#X connect 20 0 32 0;
#X connect 21 0 22 0;
#X connect 22 0 50 0;
#X connect 23 0 24 0;
#X connect 24 0 19 1;
#X connect 26 0 25 0;
#X connect 27 0 10 0;
#X connect 27 1 10 1;
#X connect 28 0 43 0;
#X connect 29 0 20 0;
#X connect 30 0 31 0;
#X connect 31 0 17 0;
#X connect 32 0 33 0;
#X connect 33 0 23 0;
#X connect 34 0 36 0;
#X connect 35 0 8 0;
#X connect 36 0 10 0;
#X connect 43 0 1 0;
#X connect 43 0 30 0;
#X connect 43 0 29 0;
#X connect 44 0 13 0;
#X connect 47 0 11 0;
#X connect 47 0 5 0;
#X connect 49 0 18 1;
#X connect 50 0 24 1;
#X connect 52 0 51 0;
#X restore 312 328 pd harmonize;
#X connect 0 0 7 0;
#X connect 1 0 31 0;
#X connect 4 0 8 0;
#X connect 4 0 82 1;
#X connect 4 0 81 0;
#X connect 4 0 83 0;
#X connect 5 0 26 0;
#X connect 6 0 5 1;
#X connect 7 0 35 0;
#X connect 7 1 36 0;
#X connect 8 0 9 0;
#X connect 9 0 10 0;
#X connect 9 2 15 0;
#X connect 10 0 11 0;
#X connect 10 1 12 0;
#X connect 10 1 76 0;
#X connect 10 2 13 0;
#X connect 10 3 14 0;
#X connect 15 0 16 0;
#X connect 15 1 17 0;
#X connect 15 1 76 1;
#X connect 15 2 18 0;
#X connect 15 3 19 0;
#X connect 26 0 0 0;
#X connect 26 1 1 0;
#X connect 27 0 29 1;
#X connect 28 0 29 0;
#X connect 29 0 5 0;
#X connect 30 0 29 2;
#X connect 32 0 34 0;
#X connect 33 0 32 0;
#X connect 34 0 42 0;
#X connect 35 0 56 1;
#X connect 36 0 35 1;
#X connect 38 0 30 0;
#X connect 39 0 27 0;
#X connect 40 0 42 1;
#X connect 41 0 40 0;
#X connect 41 1 78 0;
#X connect 42 0 37 0;
#X connect 43 0 79 0;
#X connect 44 0 41 0;
#X connect 45 0 40 0;
#X connect 46 0 44 0;
#X connect 46 0 78 1;
#X connect 46 1 47 0;
#X connect 47 0 48 0;
#X connect 48 0 45 0;
#X connect 49 0 51 0;
#X connect 50 0 74 0;
#X connect 51 0 52 0;
#X connect 51 0 43 0;
#X connect 51 0 63 0;
#X connect 52 0 55 0;
#X connect 52 1 53 0;
#X connect 52 1 58 0;
#X connect 53 0 50 1;
#X connect 54 0 50 1;
#X connect 55 0 54 0;
#X connect 56 0 33 0;
#X connect 57 0 63 1;
#X connect 59 0 39 0;
#X connect 59 1 38 0;
#X connect 60 0 59 0;
#X connect 63 0 56 0;
#X connect 67 0 68 0;
#X connect 69 0 60 0;
#X connect 70 0 72 0;
#X connect 71 0 80 0;
#X connect 72 0 4 0;
#X connect 72 1 71 0;
#X connect 73 0 37 1;
#X connect 74 0 49 0;
#X connect 75 0 54 0;
#X connect 76 0 77 0;
#X connect 77 0 50 0;
#X connect 78 0 48 0;
#X connect 79 0 46 0;
#X connect 80 0 4 0;
#X connect 81 0 82 1;
#X connect 83 0 82 1;
